<svg xmlns="http://www.w3.org/2000/svg"  viewBox="0 0 64 64" width="64px" height="64px"><path fill="#71caaf" d="M9,7h46c1.105,0,2,0.895,2,2v46c0,1.105-0.895,2-2,2H9c-1.105,0-2-0.895-2-2V9C7,7.895,7.895,7,9,7z"/><path fill="#66bea1" d="M11,32h42c2.209,0,4,1.791,4,4v18c0,1.657-1.343,3-3,3H10c-1.657,0-3-1.343-3-3V36 C7,33.791,8.791,32,11,32z"/><path fill="#97e0bb" d="M55,7H9C7.895,7,7,7.895,7,9v8c0-2.209,1.791-4,4-4h42c2.209,0,4,1.791,4,4V9C57,7.895,56.105,7,55,7 z"/><path fill="#8d6c9f" d="M55,6H9C7.343,6,6,7.343,6,9v46c0,1.657,1.343,3,3,3l0,0h46c1.657,0,3-1.343,3-3l0,0V9 C58,7.343,56.657,6,55,6z M56,55c0,0.552-0.448,1-1,1H9c-0.552,0-1-0.448-1-1V9c0-0.552,0.448-1,1-1h46c0.552,0,1,0.448,1,1V55z"/><path fill="#8d6c9f" d="M17 11c-.552 0-1 .448-1 1v2c0 .552.448 1 1 1s1-.448 1-1v-2C18 11.448 17.552 11 17 11zM22 11c-.552 0-1 .448-1 1v2c0 .552.448 1 1 1s1-.448 1-1v-2C23 11.448 22.552 11 22 11zM27 11c-.552 0-1 .448-1 1v2c0 .552.448 1 1 1s1-.448 1-1v-2C28 11.448 27.552 11 27 11zM32 11c-.552 0-1 .448-1 1v2c0 .552.448 1 1 1s1-.448 1-1v-2C33 11.448 32.552 11 32 11zM37 11c-.552 0-1 .448-1 1v2c0 .552.448 1 1 1s1-.448 1-1v-2C38 11.448 37.552 11 37 11zM42 11c-.552 0-1 .448-1 1v2c0 .552.448 1 1 1s1-.448 1-1v-2C43 11.448 42.552 11 42 11zM47 11c-.552 0-1 .448-1 1v2c0 .552.448 1 1 1s1-.448 1-1v-2C48 11.448 47.552 11 47 11zM52 11c-.552 0-1 .448-1 1v2c0 .552.448 1 1 1s1-.448 1-1v-2C53 11.448 52.552 11 52 11zM12 11c-.552 0-1 .448-1 1v2c0 .552.448 1 1 1s1-.448 1-1v-2C13 11.448 12.552 11 12 11z"/><path fill="#f9efde" d="M40 17L30.03 27 25 22 21.985 25.015 30 33 43 20z"/><path fill="#8d6c9f" d="M30,34c-0.255,0-0.511-0.097-0.706-0.292l-8.015-7.985c-0.188-0.188-0.294-0.442-0.294-0.708 s0.105-0.521,0.293-0.708l3.015-3.015c0.39-0.39,1.021-0.391,1.412-0.002l4.322,4.296l9.265-9.293 C39.479,16.106,39.734,16,39.999,16C40,16,40,16,40,16c0.265,0,0.52,0.105,0.707,0.293l3,3c0.391,0.391,0.391,1.023,0,1.414l-13,13 C30.512,33.902,30.256,34,30,34z M23.4,25.013l6.598,6.574L41.586,20l-1.585-1.585l-9.263,9.291c-0.39,0.39-1.021,0.393-1.413,0.003 l-4.323-4.297L23.4,25.013z"/><path fill="#f9efde" d="M48,44c-1-1-6-3-6-3s-5,2-6,3s-1,6-1,6h7h7C49,50,49,45,48,44z"/><path fill="#f9efde" d="M42 35A3 3.5 0 1 0 42 42 3 3.5 0 1 0 42 35zM28 44c-1-1-6-3-6-3s-5 2-6 3-1 6-1 6h7 7C29 50 29 45 28 44z"/><path fill="#f9efde" d="M22 35A3 3.5 0 1 0 22 42 3 3.5 0 1 0 22 35zM38 46c-1-1-6-3-6-3s-5 2-6 3-1 6-1 6h7 7C39 52 39 47 38 46z"/><path fill="#f9efde" d="M32 37A3 3.5 0 1 0 32 44A3 3.5 0 1 0 32 37Z"/><path fill="#8d6c9f" d="M48.707,43.293c-0.589-0.589-2.134-1.377-3.57-2.035C45.669,40.494,46,39.544,46,38.5 c0-2.481-1.794-4.5-4-4.5s-4,2.019-4,4.5c0,1.044,0.331,1.993,0.863,2.758c-1.436,0.658-2.981,1.447-3.57,2.035 c-0.008,0.008-0.014,0.019-0.022,0.027c-0.045-0.021-0.089-0.041-0.134-0.062C35.669,42.494,36,41.544,36,40.5 c0-2.481-1.794-4.5-4-4.5s-4,2.019-4,4.5c0,1.044,0.331,1.994,0.863,2.758c-0.045,0.021-0.089,0.041-0.134,0.061 c-0.008-0.008-0.014-0.019-0.022-0.026c-0.588-0.588-2.134-1.378-3.569-2.036C25.67,40.493,26,39.544,26,38.5 c0-2.481-1.794-4.5-4-4.5s-4,2.019-4,4.5c0,1.044,0.33,1.993,0.862,2.757c-1.435,0.658-2.981,1.447-3.569,2.036 C14.126,44.46,14,48.372,14,50c0,0.552,0.448,1,1,1h9.022C24.001,51.581,24,51.975,24,52c0,0.552,0.448,1,1,1h14 c0.552,0,1-0.448,1-1c0-0.025-0.001-0.419-0.022-1H49c0.552,0,1-0.448,1-1C50,48.372,49.874,44.46,48.707,43.293z M42,36 c1.103,0,2,1.122,2,2.5S43.103,41,42,41s-2-1.122-2-2.5S40.897,36,42,36z M32,38c1.103,0,2,1.122,2,2.5S33.103,43,32,43 s-2-1.122-2-2.5S30.897,38,32,38z M22,36c1.103,0,2,1.122,2,2.5S23.103,41,22,41s-2-1.122-2-2.5S20.897,36,22,36z M39.022,49 c0.001,0.009,0.002,0.017,0.003,0.026c-0.057-0.006-0.109-0.027-0.169-0.023c-0.551,0.038-0.967,0.515-0.929,1.066 c0.023,0.337,0.039,0.655,0.05,0.932H26.023c0.011-0.277,0.027-0.595,0.05-0.932c0.038-0.551-0.378-1.028-0.929-1.066 c-0.067-0.005-0.127,0.017-0.191,0.025c0.001-0.009,0-0.018,0-0.027h-8.934c0.076-2.039,0.366-3.922,0.688-4.293 c0.428-0.428,2.171-1.278,3.859-2.019C21.012,42.883,21.493,43,22,43c0.507,0,0.988-0.117,1.435-0.312 c1.272,0.558,2.555,1.172,3.303,1.627c-0.628,0.348-1.155,0.688-1.445,0.978c-0.391,0.391-0.391,1.023,0,1.414s1.023,0.391,1.414,0 c0.428-0.428,2.171-1.278,3.859-2.019C31.012,44.883,31.493,45,32,45s0.988-0.117,1.434-0.312c1.688,0.74,3.43,1.59,3.859,2.019 C37.488,46.902,37.744,47,38,47s0.512-0.098,0.707-0.293c0.391-0.391,0.391-1.023,0-1.414c-0.29-0.29-0.818-0.629-1.445-0.977 c0.749-0.456,2.032-1.069,3.304-1.627C41.012,42.883,41.493,43,42,43c0.507,0,0.988-0.117,1.435-0.312 c1.684,0.739,3.423,1.587,3.856,2.016c0.324,0.377,0.615,2.259,0.69,4.295H39.022z"/></svg>